<mxfile host="app.diagrams.net" modified="2023-06-26T19:39:11.374Z" agent="Mozilla/5.0 (Macintosh; Intel Mac OS X 10_15_7) AppleWebKit/537.36 (KHTML, like Gecko) Chrome/113.0.0.0 Safari/537.36" version="21.5.0" etag="-16lk_k7clI3L6Fq6Lmj" type="github">
  <diagram name="Page-1" id="SxG397NrlCI8h6F1SE-z">
    <mxGraphModel>
      <root>
        <mxCell id="0" />
        <mxCell id="1" parent="0" />
      </root>
    </mxGraphModel>
  </diagram>
</mxfile>
